<svg width="320" height="320" viewBox="0 0 320 320" fill="none" xmlns="http://www.w3.org/2000/svg">
<path d="M274.6 132.531L274.6 131.555L275.03 134.134C275.026 134.164 274.6 131.82 274.6 132.531ZM45.0227 131.555L45.0229 132.532C45.0229 131.78 44.5445 134.455 44.597 134.103L45.0227 131.555ZM45.0379 131.478L45.0376 131.494L42.0417 144.005L42.0526 143.968L42.0142 144.108L41.9782 144.258L41.8713 144.718C38.5378 159.607 47.1046 174.675 61.6064 179.403L62.3224 179.629C62.9828 179.826 64.3854 180.183 68.1285 181.097L105.707 190.177L107.896 190.697L107.894 190.704C110.86 191.46 112.718 192.387 113.65 193.337C114.314 194.015 114.648 194.898 114.648 196.648C114.648 196.769 114.621 196.968 114.551 197.24C114.456 197.613 114.297 198.052 114.072 198.541L113.976 198.746C113.509 199.711 112.839 200.77 112.016 201.841L111.737 202.193L74.9476 247.862L67.7949 256.769L64.2466 261.21L63.339 262.36L62.7297 263.152C62.5855 263.344 62.53 263.431 62.4764 263.539L62.4633 263.565L62.4417 263.597C53.8056 276.186 56.1355 293.325 67.8399 303.138L68.183 303.421L68.2496 303.479L68.2279 303.458L78.7077 311.958L78.7304 311.982L79.2037 312.367L79.5727 312.662C91.439 322.004 108.447 320.89 119.017 310.169L119.354 309.82L119.445 309.753C119.524 309.69 119.603 309.608 119.776 309.407L120.794 308.196L122.064 306.66L127.627 299.866L154.042 267.412C154.57 266.757 156.064 264.876 156.502 264.346L156.783 264.008C157.887 262.696 158.747 261.83 159.468 261.299L159.548 261.24C159.626 261.184 159.698 261.136 159.762 261.096L159.812 261.065L159.861 261.096C159.947 261.15 160.046 261.218 160.157 261.299C160.878 261.831 161.738 262.697 162.845 264.011L163.127 264.349C163.35 264.619 163.854 265.247 164.365 265.886L165.779 267.648L187.832 294.758L196.019 304.782L198.749 308.098L199.632 309.154C200.035 309.632 200.087 309.68 200.238 309.788L200.288 309.842C210.94 320.98 228.42 322.123 240.419 312.367L240.893 311.982L240.916 311.956L251.394 303.458L251.377 303.477L251.447 303.415L251.783 303.138C263.371 293.423 265.77 276.528 257.437 263.976L257.159 263.565L257.124 263.495C257.082 263.416 257.031 263.338 256.935 263.207L256.226 262.286L255.283 261.092L251.309 256.12L238.128 239.721L219.405 216.474L207.786 202.062C206.823 200.844 206.054 199.629 205.556 198.544C205.332 198.056 205.174 197.618 205.078 197.244C205.009 196.972 204.982 196.771 204.982 196.648C204.982 194.896 205.315 194.012 205.979 193.335L206.054 193.26C207.007 192.337 208.842 191.44 211.729 190.704L211.726 190.695L216.857 189.472L251.011 181.216C255.761 180.058 257.036 179.728 257.586 179.541L257.639 179.522L257.803 179.472C268.866 175.955 276.771 166.319 278.229 154.939C278.684 151.39 278.493 147.777 277.644 144.253L277.608 144.105L277.582 144.004L277.571 143.954L274.585 131.494L274.585 131.478L274.341 130.46L274.228 130.001C270.439 115.211 255.99 105.701 240.913 108.071L240.544 108.132L240.381 108.154C240.257 108.173 240.121 108.199 239.929 108.238L239.464 108.336L238.552 108.54L234.399 109.508L197.216 118.359L197.4 118.233C200.837 115.847 203.714 113.479 206.931 110.246C213.42 103.76 218.193 95.7204 221.278 86.8202C223.855 79.3864 225.151 71.5727 225.151 64.6541C225.151 29.0358 195.607 0 159.812 0H158.954H158.892C123.473 0.497898 94.4718 29.377 94.4718 64.6541C94.4718 71.5711 95.7694 79.3859 98.3474 86.8211C101.433 95.7195 106.206 103.758 112.709 110.262L113.039 110.592C116.111 113.646 118.905 115.929 122.206 118.221L122.405 118.358L91.2049 110.922L82.7913 108.938L80.5953 108.432L79.9743 108.296L79.5503 108.209C79.3828 108.176 79.2605 108.154 79.1383 108.139L79.0792 108.132L78.7104 108.071C63.4779 105.677 48.8857 115.409 45.2817 130.46L45.0379 131.478ZM70.2358 163.38L67.8936 162.8C68.4107 162.931 67.8308 162.784 68.3043 162.993L67.8825 162.814L67.3806 162.668L67.1981 162.613C61.2618 160.778 57.7147 154.625 59.0674 148.579L59.1182 148.363L62.394 134.695L62.4377 134.508L62.4675 134.389C64.0076 128.378 69.9451 124.523 76.0898 125.589L76.3746 125.641L77.7805 125.961L84.1475 127.456L119.602 135.899L120.743 136.16C125.908 137.337 128.705 137.762 132.088 137.475C138.112 136.963 143.02 133.665 145.24 127.676C146.847 123.374 146.86 119.121 145.047 115.23C143.666 112.265 141.586 110.08 138.638 107.901L138.042 107.467C137.13 106.815 136.322 106.284 134.386 105.038C130.744 102.668 128.205 100.708 125.214 97.7013C116.708 89.1967 112.141 76.0265 112.141 64.5905L112.147 63.826C112.56 38.8975 133.144 18.4027 158.365 17.6431L159.098 17.6267H159.81C185.917 17.6267 207.48 38.8149 207.48 64.5905C207.48 76.0337 202.916 89.1976 194.425 97.6832C191.51 100.614 189.036 102.545 185.542 104.836L185.201 105.059C183.057 106.44 182.307 106.936 181.23 107.719C178.151 109.959 175.993 112.183 174.574 115.23C172.761 119.121 172.774 123.374 174.388 127.696C176.606 133.66 181.505 136.956 187.518 137.473C190.834 137.758 193.598 137.355 198.549 136.235L200.447 135.799L230.624 128.605L240.559 126.259L242.976 125.702L243.245 125.642L243.533 125.589C249.677 124.524 255.613 128.379 257.153 134.389L257.183 134.508L260.512 148.401L260.511 148.402C260.852 149.818 260.928 151.26 260.746 152.68C260.145 157.373 256.834 161.328 252.24 162.668L251.717 162.82L251.276 163.01C251.641 162.847 251.402 162.889 251.479 162.865L251.577 162.838L247.796 163.771L229.925 168.108L208.529 173.274C208.279 173.337 208.08 173.389 208.104 173.389L208.121 173.387L207.758 173.448L207.396 173.54C194.771 176.758 187.294 184.391 187.294 196.673C187.294 202.283 189.768 207.763 193.73 212.846L194.526 213.84L211.295 234.643L238.723 268.736L241.741 272.516L242.382 273.33L242.534 273.54C246.147 278.632 245.236 285.652 240.471 289.645L240.293 289.791L240.286 289.797L229.449 298.589L229.262 298.743L229.309 298.706C224.381 302.712 217.131 302.15 212.861 297.395L212.404 296.886L211.926 296.495C212.332 296.818 212.122 296.528 212.233 296.653L212.397 296.845L210.032 293.974L201.087 283.023L179.36 256.318C178.912 255.762 177.353 253.802 176.79 253.12C174.701 250.593 172.854 248.702 170.673 247.093C167.423 244.697 163.818 243.3 159.81 243.3C155.803 243.3 152.197 244.697 148.948 247.094C146.85 248.641 145.06 250.451 143.071 252.835L142.724 253.254C142.029 254.105 140.404 256.152 140.171 256.437L115.557 286.678L109.188 294.465L107.367 296.678C107.571 296.438 107.304 296.786 107.695 296.492L107.793 296.415L107.241 296.859L106.76 297.395L106.631 297.536C102.431 302.068 95.4755 302.65 90.6075 298.939L90.3799 298.761L89.585 298.109L79.3202 289.784L79.3346 289.797L79.1481 289.643C74.3843 285.65 73.474 278.63 77.0879 273.538L77.2591 273.304L78.6468 271.552L82.0659 267.28L99.2758 245.881L125.648 213.162L125.708 213.088C129.781 207.925 132.334 202.371 132.334 196.673C132.334 184.391 124.851 176.758 112.225 173.54L111.926 173.464L111.632 173.41C111.648 173.413 111.641 173.41 111.616 173.403L110.636 173.158L93.2234 168.959L72.736 163.993C71.7893 163.761 70.9541 163.557 70.2358 163.38Z" fill="#660099"/>
</svg>
